# xmcd CD database file
#
# Track frame offsets:
#	5446
#	24071
#	39985
#	61979
#	85717
#	104833
#	113838
#	116526
#	135874
#	162093
#	191261
#
# Disc length: 2943 seconds
#
# Revision: 0
# Processed by: cddbd v1.5.2PL0 Copyright (c) Steve Scherf et al.
# Submitted via: CDex 1.51
#
DISCID=820b370b
DTITLE=Ozma - Peacemaker
DYEAR=2011
DGENRE=Jazz
TTITLE0=Rain cadenza
TTITLE1=Balsam firs
TTITLE2=No confort
TTITLE3=Pr. Challenger
TTITLE4=Tangram
TTITLE5=Le chagrin de l'atome
TTITLE6=Raspoutine
TTITLE7=Livingston
TTITLE8=Le voyage de Siddhartha
TTITLE9=Dilatation stéréo
TTITLE10=Peacemakers
EXTD=YEAR: 2011
EXTT0=
EXTT1=
EXTT2=
EXTT3=
EXTT4=
EXTT5=
EXTT6=
EXTT7=
EXTT8=
EXTT9=
EXTT10=
PLAYORDER=
